PathFileType	4	(X/Y/Z)	6_coords_data.trc
DataRate	CameraRate	NumFrames	NumMarkers	Units	OrigDataRate	OrigDataStartFrame	OrigNumFrames
30.0	30.0	7	21	m	30.0	11	72
Frame#	Time	THUMB_TIP	THUMB_IP	THUMB_MCP	THUMB_CMC	INDEX_TIP	INDEX_DIP	INDEX_PIP	INDEX_MCP	MIDDLE_TIP	MIDDLE_DIP	MIDDLE_PIP	MIDDLE_MCP	RING_TIP	RING_DIP	RING_PIP	RING_MCP	PINKY_TIP	PINKY_DIP	PINKY_PIP	PINKY_MCP	WRIST
X1	Y1	Z1	X2	Y2	Z2	X3	Y3	Z3	X4	Y4	Z4	X5	Y5	Z5	X6	Y6	Z6	X7	Y7	Z7	X8	Y8	Z8	X9	Y9	Z9	X10	Y10	Z10	X11	Y11	Z11	X12	Y12	Z12	X13	Y13	Z13	X14	Y14	Z14	X15	Y15	Z15	X16	Y16	Z16	X17	Y17	Z17	X18	Y18	Z18	X19	Y19	Z19	X20	Y20	Z20	X21	Y21	Z21
10	0.3333333333333333	0.051769500732421876	-0.14819900512695314	1.057239990234375	0.039441699981689456	-0.12537799835205077	1.06806005859375	0.016267799377441407	-0.11078399658203125	1.085280029296875	0.001006459951400756	-0.07630139923095704	1.092010009765625	0.043345001220703124	-0.12485900115966797	0.9633560180664062	0.030845600128173827	-0.11975	0.9823599853515625	0.018161800384521483	-0.11347899627685547	1.0030800170898437	9.0740896761417e-05	-0.09997930145263671	1.0368599853515625	0.04199089813232422	-0.08673049926757813	0.9405150146484375	0.028464700698852537	-0.08582080078125	0.9622420043945312	0.012085800170898437	-0.083822998046875	0.9894650268554688	-0.00659680986404419	-0.07758930206298828	1.026719970703125	0.036166698455810546	-0.05000239944458008	0.9420070190429688	0.025766700744628907	-0.051339900970458985	0.9645230102539063	0.013991700172424317	-0.05317050170898437	0.9911519775390625	-0.003473870038986206	-0.05503319931030273	1.0278900146484375	0.036043399810791014	-0.016113100051879884	0.9757009887695313	0.024416799545288085	-0.02050469970703125	0.992073974609375	0.01342770004272461	-0.02521980094909668	1.00802001953125	-0.000576083004474639	-0.03430580139160156	1.033469970703125	-0.029098499298095704	-0.04741500091552735	1.1038199462890625
11	0.36666666666666664	0.05183340072631836	-0.1480959930419922	1.0574200439453125	0.039604801177978516	-0.12522699737548829	1.06827001953125	0.016290500640869142	-0.1106719970703125	1.085469970703125	0.001040060043334961	-0.07618740081787109	1.09225	0.0436870002746582	-0.1246969985961914	0.9637230224609376	0.031039499282836915	-0.11960600280761718	0.982676025390625	0.018337900161743165	-0.11335700225830078	1.0033499755859374	0.00012974800169467902	-0.09984380340576172	1.0370400390625	0.042337299346923825	-0.08657199859619141	0.9408380126953125	0.028743099212646485	-0.08570159912109375	0.9625369873046875	0.012256799697875976	-0.08372709655761719	0.9895599975585937	-0.0065400700569152835	-0.07743109893798829	1.0269100341796875	0.03651490020751953	-0.04981349945068359	0.94239599609375	0.025993099212646486	-0.05117839813232422	0.9647949829101562	0.014185000419616699	-0.05303150177001953	0.9913619995117188	-0.003310090065002441	-0.05491239929199219	1.0281500244140624	0.03646319961547852	-0.016078500747680663	0.9761179809570313	0.02484709930419922	-0.020457799911499024	0.9924559936523437	0.013706999778747559	-0.025197200775146485	1.0083800048828124	-0.00046866500377655004	-0.03422529983520508	1.033760009765625	-0.029079599380493162	-0.04741479873657226	1.10402001953125
12	0.4	0.05211230087280273	-0.14787800598144532	1.057510009765625	0.039884101867675784	-0.1251009979248047	1.0684300537109375	0.016577899932861326	-0.11050700378417969	1.0856099853515624	0.0012403899431228632	-0.07607730102539062	1.092449951171875	0.043919700622558594	-0.1244020004272461	0.96393701171875	0.031230600357055664	-0.11940499877929688	0.9828709716796875	0.018492700576782227	-0.11322699737548828	1.003530029296875	0.000272246003150939	-0.09979579925537109	1.037260009765625	0.04262710189819336	-0.08633419799804687	0.9411909790039062	0.028934099197387694	-0.0854822998046875	0.9628469848632812	0.012386199951171874	-0.08361630249023437	0.9897369995117188	-0.006272210121154785	-0.07724490356445313	1.027260009765625	0.03668299865722656	-0.049638999938964846	0.94264501953125	0.026149099349975585	-0.05099829864501953	0.9649879760742187	0.014260000228881835	-0.05286930084228516	0.9916099853515625	-0.0031857800483703607	-0.05478139877319336	1.0283599853515626	0.0365531005859375	-0.015915399551391603	0.9764199829101563	0.024895999908447267	-0.02026539993286133	0.9926199951171875	0.013793100357055664	-0.02499720001220703	1.0084600219726563	-0.00044231399893760603	-0.034079200744628904	1.0339100341796874	-0.02888909912109375	-0.04733169937133789	1.10406005859375
13	0.43333333333333335	0.051997001647949216	-0.14783900451660156	1.0576099853515626	0.03985350036621094	-0.1250009994506836	1.068449951171875	0.016501699447631836	-0.11044400024414062	1.085760009765625	0.001174649953842163	-0.07599179840087891	1.0925899658203124	0.043942401885986325	-0.12429199981689452	0.9640380249023438	0.031208200454711912	-0.11925299835205078	0.9829920043945313	0.01838909912109375	-0.11305400085449219	1.0036199951171876	0.00023861500620841902	-0.09963610076904297	1.03731005859375	0.04280590057373047	-0.08611070251464843	0.941375	0.02912579917907715	-0.08529049682617187	0.9629299926757813	0.012475299835205077	-0.08341940307617188	0.9898889770507813	-0.006451839923858642	-0.07714209747314453	1.02731005859375	0.03696900177001953	-0.04940000152587891	0.9428709716796875	0.02637030029296875	-0.05079159927368164	0.9651810302734375	0.014343700408935546	-0.052669898986816406	0.9917319946289063	-0.003283940076828003	-0.05459510040283203	1.0283599853515626	0.036798099517822265	-0.015775500297546388	0.97668798828125	0.025093000411987306	-0.020098100662231444	0.9927960205078125	0.013963100433349609	-0.024846000671386717	1.0086199951171875	-0.00038107299804687506	-0.033951198577880856	1.034050048828125	-0.02898069953918457	-0.04700920104980469	1.1044300537109375
14	0.4666666666666667	0.05188949966430664	-0.14771600341796876	1.057780029296875	0.039602401733398435	-0.12497799682617187	1.0685	0.016331800460815428	-0.11040799713134766	1.0858399658203124	0.0011031800508499142	-0.07594239807128907	1.0926600341796875	0.04383610153198242	-0.12420700073242187	0.9641719970703125	0.03103890037536621	-0.11918199920654297	0.9830819702148438	0.018264400482177735	-0.113	1.0036300048828124	7.1425296366214e-05	-0.09958619689941406	1.0373599853515625	0.042856201171875	-0.08600640106201173	0.94156201171875	0.02911050033569336	-0.08516210174560547	0.96322900390625	0.012409299850463866	-0.0833196029663086	0.9900469970703125	-0.00646205997467041	-0.07698059844970703	1.0275	0.03709389877319336	-0.04932939910888672	0.9430570068359375	0.026445199966430664	-0.050716400146484375	0.9653900146484375	0.014377200126647949	-0.052604598999023436	0.991926025390625	-0.0032720398902893063	-0.054547901153564456	1.0286199951171875	0.03720769882202148	-0.015792200088500977	0.9770910034179687	0.025361099243164063	-0.02010260009765625	0.9930980224609375	0.014075599670410156	-0.02480500030517578	1.0088200073242188	-0.00043530899286270104	-0.03387039947509766	1.0342099609375	-0.029016700744628907	-0.04698479843139648	1.104550048828125
15	0.5	0.05187810134887695	-0.14763400268554688	1.057760009765625	0.039639198303222656	-0.12488300323486329	1.06856005859375	0.016385400772094726	-0.11031999969482421	1.0859200439453125	0.0010927300453186031	-0.07588009643554687	1.092739990234375	0.043922698974609375	-0.12398500061035156	0.9643200073242187	0.031117300033569335	-0.11901799774169922	0.9832349853515625	0.018297700881958007	-0.11284400177001953	1.0037899780273438	4.6493601053953005e-05	-0.099466796875	1.0375	0.042974098205566406	-0.08581950378417968	0.941791015625	0.02917530059814453	-0.08500879669189453	0.96335302734375	0.012396699905395507	-0.08318959808349609	0.9901209716796875	-0.006564080238342285	-0.07694640350341797	1.0274100341796875	0.03722760009765625	-0.049198699951171876	0.9432509765625	0.02649259948730469	-0.050588001251220704	0.9654819946289063	0.01435700035095215	-0.05249129867553711	0.9919420166015624	-0.003510629892349243	-0.054438499450683596	1.02875	0.037819499969482424	-0.016003700256347658	0.9775469970703125	0.025721399307250977	-0.02021310043334961	0.9934569702148438	0.014256799697875976	-0.024822500228881834	1.0090999755859376	-0.000621473014354705	-0.03376739883422852	1.0343800048828125	-0.02902669906616211	-0.047012699127197265	1.1046099853515625
16	0.5333333333333333	0.05194969940185547	-0.1475030059814453	1.0578599853515624	0.03974570083618164	-0.12485800170898438	1.068739990234375	0.016423999786376955	-0.11028600311279296	1.08597998046875	0.0010708299875259398	-0.07582360076904297	1.0928900146484375	0.044065898895263675	-0.12387000274658203	0.9644760131835938	0.03121179962158203	-0.11888899993896485	0.9833740234375	0.018294300079345703	-0.11276000213623047	1.0039400024414062	7.5109302997589e-05	-0.09945950317382812	1.0376099853515626	0.04317200088500977	-0.08566570281982422	0.942010986328125	0.029339399337768555	-0.08487460327148437	0.9635339965820312	0.012531900405883789	-0.08312259674072266	0.990239990234375	-0.0065292401313781735	-0.07696230316162109	1.02752001953125	0.037531600952148435	-0.04904779815673828	0.9435440063476562	0.02670669937133789	-0.05045539855957031	0.9657030029296875	0.01448270034790039	-0.052392501831054684	0.9921220092773437	-0.0035044200420379637	-0.05437060165405273	1.0288299560546874	0.03841669845581055	-0.016149499893188476	0.978073974609375	0.02621179962158203	-0.02028739929199219	0.9938759765625	0.014511500358581543	-0.02486470031738281	1.0093900146484376	-0.000650568008422851	-0.03372190093994141	1.0344599609375	-0.02903230094909668	-0.0468921012878418	1.104760009765625
